<?xml version="1.0" encoding="UTF-8" standalone="no"?>
<!DOCTYPE svg PUBLIC "-//W3C//DTD SVG 1.1//EN"
 "http://www.w3.org/Graphics/SVG/1.1/DTD/svg11.dtd">
<!-- Generated by graphviz version 2.43.0 (0)
 -->
<!-- Title: architecture Pages: 1 -->
<svg width="1689pt" height="584pt"
 viewBox="0.00 0.00 1688.81 584.02" xmlns="http://www.w3.org/2000/svg" xmlns:xlink="http://www.w3.org/1999/xlink">
<g id="graph0" class="graph" transform="scale(1 1) rotate(0) translate(4 580.02)">
<title>architecture</title>
<polygon fill="white" stroke="transparent" points="-4,4 -4,-580.02 1684.81,-580.02 1684.81,4 -4,4"/>
<g id="clust1" class="cluster">
<title>cluster_interfaces</title>
<path fill="#bbdefb" stroke="#1e88e5" d="M245.66,-249.02C245.66,-249.02 347.66,-249.02 347.66,-249.02 353.66,-249.02 359.66,-255.02 359.66,-261.02 359.66,-261.02 359.66,-384.02 359.66,-384.02 359.66,-390.02 353.66,-396.02 347.66,-396.02 347.66,-396.02 245.66,-396.02 245.66,-396.02 239.66,-396.02 233.66,-390.02 233.66,-384.02 233.66,-384.02 233.66,-261.02 233.66,-261.02 233.66,-255.02 239.66,-249.02 245.66,-249.02"/>
<text text-anchor="middle" x="296.66" y="-380.82" font-family="Helvetica,sans-Serif" font-weight="bold" font-size="14.00">🖥️ Interfaces</text>
</g>
<g id="clust2" class="cluster">
<title>cluster_core</title>
<path fill="#fff9c4" stroke="#fbc02d" d="M494.66,-263.02C494.66,-263.02 646.66,-263.02 646.66,-263.02 652.66,-263.02 658.66,-269.02 658.66,-275.02 658.66,-275.02 658.66,-556.02 658.66,-556.02 658.66,-562.02 652.66,-568.02 646.66,-568.02 646.66,-568.02 494.66,-568.02 494.66,-568.02 488.66,-568.02 482.66,-562.02 482.66,-556.02 482.66,-556.02 482.66,-275.02 482.66,-275.02 482.66,-269.02 488.66,-263.02 494.66,-263.02"/>
<text text-anchor="middle" x="570.66" y="-552.82" font-family="Helvetica,sans-Serif" font-weight="bold" font-size="14.00">⚙️ Core Logic</text>
</g>
<g id="clust3" class="cluster">
<title>cluster_memory</title>
<path fill="#e1bee7" stroke="#8e24aa" d="M824.66,-240.02C824.66,-240.02 993.66,-240.02 993.66,-240.02 999.66,-240.02 1005.66,-246.02 1005.66,-252.02 1005.66,-252.02 1005.66,-481.02 1005.66,-481.02 1005.66,-487.02 999.66,-493.02 993.66,-493.02 993.66,-493.02 824.66,-493.02 824.66,-493.02 818.66,-493.02 812.66,-487.02 812.66,-481.02 812.66,-481.02 812.66,-252.02 812.66,-252.02 812.66,-246.02 818.66,-240.02 824.66,-240.02"/>
<text text-anchor="middle" x="909.16" y="-477.82" font-family="Helvetica,sans-Serif" font-weight="bold" font-size="14.00">💾 Memory Systems</text>
</g>
<g id="clust4" class="cluster">
<title>cluster_exec</title>
<path fill="#c5e1a5" stroke="#7cb342" d="M854.16,-39.02C854.16,-39.02 1317.66,-39.02 1317.66,-39.02 1323.66,-39.02 1329.66,-45.02 1329.66,-51.02 1329.66,-51.02 1329.66,-220.02 1329.66,-220.02 1329.66,-226.02 1323.66,-232.02 1317.66,-232.02 1317.66,-232.02 854.16,-232.02 854.16,-232.02 848.16,-232.02 842.16,-226.02 842.16,-220.02 842.16,-220.02 842.16,-51.02 842.16,-51.02 842.16,-45.02 848.16,-39.02 854.16,-39.02"/>
<text text-anchor="middle" x="1085.91" y="-216.82" font-family="Helvetica,sans-Serif" font-weight="bold" font-size="14.00">🛠️ Execution Environment</text>
</g>
<!-- User -->
<g id="node1" class="node">
<title>User</title>
<ellipse fill="#e8f8f5" stroke="#1abc9c" stroke-width="1.5" cx="60.33" cy="-311.02" rx="60.16" ry="18"/>
<text text-anchor="middle" x="60.33" y="-307.92" font-family="Helvetica,Arial,sans-serif" font-size="12.00">🧑 Mike (User)</text>
</g>
<!-- CLI -->
<g id="node4" class="node">
<title>CLI</title>
<path fill="#ffffff" stroke="#1e88e5" stroke-width="1.5" d="M328.66,-365.02C328.66,-365.02 264.66,-365.02 264.66,-365.02 258.66,-365.02 252.66,-359.02 252.66,-353.02 252.66,-353.02 252.66,-341.02 252.66,-341.02 252.66,-335.02 258.66,-329.02 264.66,-329.02 264.66,-329.02 328.66,-329.02 328.66,-329.02 334.66,-329.02 340.66,-335.02 340.66,-341.02 340.66,-341.02 340.66,-353.02 340.66,-353.02 340.66,-359.02 334.66,-365.02 328.66,-365.02"/>
<text text-anchor="middle" x="296.66" y="-350.42" font-family="Helvetica,Arial,sans-serif" font-size="12.00">💻 Local CLI</text>
<text text-anchor="middle" x="296.66" y="-337.42" font-family="Helvetica,Arial,sans-serif" font-size="12.00">(clawd.py)</text>
</g>
<!-- User&#45;&gt;CLI -->
<g id="edge1" class="edge">
<title>User&#45;&gt;CLI</title>
<path fill="none" stroke="#1abc9c" stroke-width="1.5" d="M117.27,-317.02C187.25,-317.02 296.81,-317.02 296.81,-317.02 296.81,-317.02 296.81,-318.88 296.81,-318.88"/>
<polygon fill="#1abc9c" stroke="#1abc9c" stroke-width="1.5" points="293.31,-318.88 296.81,-328.88 300.31,-318.88 293.31,-318.88"/>
<text text-anchor="middle" x="181.16" y="-345.02" font-family="Helvetica,Arial,sans-serif" font-size="10.00" fill="#1abc9c"> stdin/args</text>
</g>
<!-- Telegram -->
<g id="node5" class="node">
<title>Telegram</title>
<path fill="#ffffff" stroke="#1e88e5" stroke-width="1.5" d="M339.66,-293.02C339.66,-293.02 253.66,-293.02 253.66,-293.02 247.66,-293.02 241.66,-287.02 241.66,-281.02 241.66,-281.02 241.66,-269.02 241.66,-269.02 241.66,-263.02 247.66,-257.02 253.66,-257.02 253.66,-257.02 339.66,-257.02 339.66,-257.02 345.66,-257.02 351.66,-263.02 351.66,-269.02 351.66,-269.02 351.66,-281.02 351.66,-281.02 351.66,-287.02 345.66,-293.02 339.66,-293.02"/>
<text text-anchor="middle" x="296.66" y="-278.42" font-family="Helvetica,Arial,sans-serif" font-size="12.00">📱 Telegram Bot</text>
<text text-anchor="middle" x="296.66" y="-265.42" font-family="Helvetica,Arial,sans-serif" font-size="12.00">(telegram_bot.py)</text>
</g>
<!-- User&#45;&gt;Telegram -->
<g id="edge2" class="edge">
<title>User&#45;&gt;Telegram</title>
<path fill="none" stroke="#1abc9c" stroke-width="1.5" d="M117.34,-305.02C172.5,-305.02 247.81,-305.02 247.81,-305.02 247.81,-305.02 247.81,-303.17 247.81,-303.17"/>
<polygon fill="#1abc9c" stroke="#1abc9c" stroke-width="1.5" points="251.31,-303.17 247.81,-293.17 244.31,-303.17 251.31,-303.17"/>
<text text-anchor="middle" x="181.16" y="-288.02" font-family="Helvetica,Arial,sans-serif" font-size="10.00" fill="#1abc9c"> Messages</text>
</g>
<!-- LLM -->
<g id="node2" class="node">
<title>LLM</title>
<path fill="#fdedec" stroke="#e74c3c" stroke-width="1.5" d="M969.66,-543.05C969.66,-545.38 942.54,-547.27 909.16,-547.27 875.77,-547.27 848.66,-545.38 848.66,-543.05 848.66,-543.05 848.66,-505 848.66,-505 848.66,-502.67 875.77,-500.77 909.16,-500.77 942.54,-500.77 969.66,-502.67 969.66,-505 969.66,-505 969.66,-543.05 969.66,-543.05"/>
<path fill="none" stroke="#e74c3c" stroke-width="1.5" d="M969.66,-543.05C969.66,-540.71 942.54,-538.82 909.16,-538.82 875.77,-538.82 848.66,-540.71 848.66,-543.05"/>
<text text-anchor="middle" x="909.16" y="-527.42" font-family="Helvetica,Arial,sans-serif" font-size="12.00">🧠 LM Studio</text>
<text text-anchor="middle" x="909.16" y="-514.42" font-family="Helvetica,Arial,sans-serif" font-size="12.00">(meta&#45;llama&#45;3.1&#45;8b)</text>
</g>
<!-- Target -->
<g id="node3" class="node">
<title>Target</title>
<path fill="#f2d7d5" stroke="#c0392b" stroke-width="1.5" d="M1676.89,-26.43C1676.89,-26.43 1676.89,-33.62 1676.89,-33.62 1676.89,-37.21 1673.43,-41.8 1669.97,-42.78 1669.97,-42.78 1630.41,-54.09 1630.41,-54.09 1626.95,-55.08 1619.9,-56.06 1616.3,-56.06 1616.3,-56.06 1555.17,-56.06 1555.17,-56.06 1551.57,-56.06 1544.52,-55.08 1541.06,-54.09 1541.06,-54.09 1501.49,-42.78 1501.49,-42.78 1498.04,-41.8 1494.58,-37.21 1494.58,-33.62 1494.58,-33.62 1494.58,-26.43 1494.58,-26.43 1494.58,-22.83 1498.04,-18.25 1501.49,-17.26 1501.49,-17.26 1541.06,-5.96 1541.06,-5.96 1544.52,-4.97 1551.57,-3.98 1555.17,-3.98 1555.17,-3.98 1616.3,-3.98 1616.3,-3.98 1619.9,-3.98 1626.95,-4.97 1630.41,-5.96 1630.41,-5.96 1669.97,-17.26 1669.97,-17.26 1673.43,-18.25 1676.89,-22.83 1676.89,-26.43"/>
<path fill="none" stroke="#c0392b" stroke-width="1.5" d="M1680.89,-25.42C1680.89,-25.42 1680.89,-34.62 1680.89,-34.62 1680.89,-39.23 1676.47,-45.09 1672.04,-46.36 1672.04,-46.36 1632.9,-57.54 1632.9,-57.54 1628.48,-58.8 1619.45,-60.07 1614.85,-60.07 1614.85,-60.07 1556.62,-60.07 1556.62,-60.07 1552.02,-60.07 1542.99,-58.8 1538.57,-57.54 1538.57,-57.54 1499.43,-46.36 1499.43,-46.36 1495,-45.09 1490.58,-39.23 1490.58,-34.62 1490.58,-34.62 1490.58,-25.42 1490.58,-25.42 1490.58,-20.82 1495,-14.95 1499.43,-13.69 1499.43,-13.69 1538.57,-2.51 1538.57,-2.51 1542.99,-1.24 1552.02,0.02 1556.62,0.02 1556.62,0.02 1614.85,0.02 1614.85,0.02 1619.45,0.02 1628.48,-1.24 1632.9,-2.51 1632.9,-2.51 1672.04,-13.69 1672.04,-13.69 1676.47,-14.95 1680.89,-20.82 1680.89,-25.42"/>
<text text-anchor="middle" x="1585.73" y="-33.42" font-family="Helvetica,Arial,sans-serif" font-size="12.00">🎯 Target Machine</text>
<text text-anchor="middle" x="1585.73" y="-20.42" font-family="Helvetica,Arial,sans-serif" font-size="12.00">(HTB / CTF)</text>
</g>
<!-- Engine -->
<g id="node8" class="node">
<title>Engine</title>
<polygon fill="#ffffff" stroke="#fbc02d" stroke-width="1.5" points="650.66,-357.02 490.66,-357.02 490.66,-353.02 486.66,-353.02 486.66,-349.02 490.66,-349.02 490.66,-279.02 486.66,-279.02 486.66,-275.02 490.66,-275.02 490.66,-271.02 650.66,-271.02 650.66,-357.02"/>
<polyline fill="none" stroke="#fbc02d" stroke-width="1.5" points="490.66,-353.02 494.66,-353.02 494.66,-349.02 490.66,-349.02 "/>
<polyline fill="none" stroke="#fbc02d" stroke-width="1.5" points="490.66,-279.02 494.66,-279.02 494.66,-275.02 490.66,-275.02 "/>
<text text-anchor="middle" x="570.66" y="-323.92" font-family="Helvetica,Arial,sans-serif" font-size="12.00">🦀 Clawd Engine</text>
<text text-anchor="middle" x="570.66" y="-310.92" font-family="Helvetica,Arial,sans-serif" font-size="12.00">(engine.py)</text>
<text text-anchor="middle" x="570.66" y="-297.92" font-family="Helvetica,Arial,sans-serif" font-size="12.00">[Tool Caller &amp; Orchestrator]</text>
</g>
<!-- CLI&#45;&gt;Engine -->
<g id="edge3" class="edge">
<title>CLI&#45;&gt;Engine</title>
<path fill="none" stroke="#2c3e50" stroke-width="1.5" d="M340.68,-343.02C340.68,-343.02 480.54,-343.02 480.54,-343.02"/>
<polygon fill="#2c3e50" stroke="#2c3e50" stroke-width="1.5" points="480.54,-346.52 490.54,-343.02 480.54,-339.52 480.54,-346.52"/>
<text text-anchor="middle" x="421.16" y="-345.02" font-family="Helvetica,Arial,sans-serif" font-size="10.00"> Chat Input</text>
</g>
<!-- Telegram&#45;&gt;Engine -->
<g id="edge4" class="edge">
<title>Telegram&#45;&gt;Engine</title>
<path fill="none" stroke="#2c3e50" stroke-width="1.5" d="M351.77,-282.02C351.77,-282.02 480.43,-282.02 480.43,-282.02"/>
<polygon fill="#2c3e50" stroke="#2c3e50" stroke-width="1.5" points="480.43,-285.52 490.43,-282.02 480.43,-278.52 480.43,-285.52"/>
<text text-anchor="middle" x="421.16" y="-288.02" font-family="Helvetica,Arial,sans-serif" font-size="10.00"> Chat Input</text>
</g>
<!-- Mind -->
<g id="node6" class="node">
<title>Mind</title>
<polygon fill="#fff9c4" stroke="#fbc02d" stroke-width="1.5" stroke-dasharray="5,2" points="628.66,-537.02 506.66,-537.02 506.66,-501.02 634.66,-501.02 634.66,-531.02 628.66,-537.02"/>
<polyline fill="none" stroke="#fbc02d" stroke-width="1.5" stroke-dasharray="5,2" points="628.66,-537.02 628.66,-531.02 "/>
<polyline fill="none" stroke="#fbc02d" stroke-width="1.5" stroke-dasharray="5,2" points="634.66,-531.02 628.66,-531.02 "/>
<text text-anchor="middle" x="570.66" y="-522.42" font-family="Helvetica,Arial,sans-serif" font-size="12.00">📜 Persona &amp; Rules</text>
<text text-anchor="middle" x="570.66" y="-509.42" font-family="Helvetica,Arial,sans-serif" font-size="12.00">(mind.md)</text>
</g>
<!-- Mind&#45;&gt;Engine -->
<g id="edge5" class="edge">
<title>Mind&#45;&gt;Engine</title>
<path fill="none" stroke="#2c3e50" stroke-width="1.5" stroke-dasharray="5,2" d="M620.81,-500.83C620.81,-500.83 620.81,-367.42 620.81,-367.42"/>
<polygon fill="#2c3e50" stroke="#2c3e50" stroke-width="1.5" points="624.31,-367.42 620.81,-357.42 617.31,-367.42 624.31,-367.42"/>
<text text-anchor="middle" x="421.16" y="-426.52" font-family="Helvetica,Arial,sans-serif" font-size="10.00"> Injects Prompt</text>
</g>
<!-- Config -->
<g id="node7" class="node">
<title>Config</title>
<polygon fill="#fff9c4" stroke="#fbc02d" stroke-width="1.5" stroke-dasharray="5,2" points="600.66,-465.02 534.66,-465.02 534.66,-429.02 606.66,-429.02 606.66,-459.02 600.66,-465.02"/>
<polyline fill="none" stroke="#fbc02d" stroke-width="1.5" stroke-dasharray="5,2" points="600.66,-465.02 600.66,-459.02 "/>
<polyline fill="none" stroke="#fbc02d" stroke-width="1.5" stroke-dasharray="5,2" points="606.66,-459.02 600.66,-459.02 "/>
<text text-anchor="middle" x="570.66" y="-450.42" font-family="Helvetica,Arial,sans-serif" font-size="12.00">⚙️ Config</text>
<text text-anchor="middle" x="570.66" y="-437.42" font-family="Helvetica,Arial,sans-serif" font-size="12.00">(config.py)</text>
</g>
<!-- Config&#45;&gt;Engine -->
<g id="edge6" class="edge">
<title>Config&#45;&gt;Engine</title>
<path fill="none" stroke="#2c3e50" stroke-width="1.5" stroke-dasharray="5,2" d="M570.81,-428.81C570.81,-428.81 570.81,-367.19 570.81,-367.19"/>
<polygon fill="#2c3e50" stroke="#2c3e50" stroke-width="1.5" points="574.31,-367.19 570.81,-357.19 567.31,-367.19 574.31,-367.19"/>
</g>
<!-- Engine&#45;&gt;LLM -->
<g id="edge7" class="edge">
<title>Engine&#45;&gt;LLM</title>
<path fill="none" stroke="#e74c3c" stroke-width="1.5" d="M640.81,-367.5C640.81,-367.5 640.81,-519.02 640.81,-519.02 640.81,-519.02 838.6,-519.02 838.6,-519.02"/>
<polygon fill="#e74c3c" stroke="#e74c3c" stroke-width="1.5" points="644.31,-367.5 640.81,-357.5 637.31,-367.5 644.31,-367.5"/>
<polygon fill="#e74c3c" stroke="#e74c3c" stroke-width="1.5" points="838.6,-522.52 848.6,-519.02 838.6,-515.52 838.6,-522.52"/>
<text text-anchor="middle" x="735.66" y="-538.02" font-family="Helvetica,Arial,sans-serif" font-size="10.00" fill="#e74c3c"> OpenAI API</text>
<text text-anchor="middle" x="735.66" y="-527.02" font-family="Helvetica,Arial,sans-serif" font-size="10.00" fill="#e74c3c">(Prompts/Tools)</text>
</g>
<!-- TargetMem -->
<g id="node9" class="node">
<title>TargetMem</title>
<path fill="#ffffff" stroke="#8e24aa" stroke-width="1.5" d="M985.66,-461.52C985.66,-461.52 832.66,-461.52 832.66,-461.52 826.66,-461.52 820.66,-455.52 820.66,-449.52 820.66,-449.52 820.66,-426.52 820.66,-426.52 820.66,-420.52 826.66,-414.52 832.66,-414.52 832.66,-414.52 985.66,-414.52 985.66,-414.52 991.66,-414.52 997.66,-420.52 997.66,-426.52 997.66,-426.52 997.66,-449.52 997.66,-449.52 997.66,-455.52 991.66,-461.52 985.66,-461.52"/>
<text text-anchor="middle" x="909.16" y="-447.92" font-family="Helvetica,Arial,sans-serif" font-size="12.00">🎯 Target State Tracker</text>
<text text-anchor="middle" x="909.16" y="-434.92" font-family="Helvetica,Arial,sans-serif" font-size="12.00">(target_memory.py)</text>
<text text-anchor="middle" x="909.16" y="-421.92" font-family="Helvetica,Arial,sans-serif" font-size="12.00">[Facts | Failures | Hypotheses]</text>
</g>
<!-- Engine&#45;&gt;TargetMem -->
<g id="edge8" class="edge">
<title>Engine&#45;&gt;TargetMem</title>
<path fill="none" stroke="#8e24aa" stroke-width="1.5" d="M645.81,-357.23C645.81,-387.2 645.81,-421.77 645.81,-421.77 645.81,-421.77 810.37,-421.77 810.37,-421.77"/>
<polygon fill="#8e24aa" stroke="#8e24aa" stroke-width="1.5" points="810.37,-425.27 820.37,-421.77 810.37,-418.27 810.37,-425.27"/>
<text text-anchor="middle" x="735.66" y="-418.02" font-family="Helvetica,Arial,sans-serif" font-size="10.00" fill="#8e24aa"> Log/Recall</text>
</g>
<!-- NotesMem -->
<g id="node10" class="node">
<title>NotesMem</title>
<path fill="#ffffff" stroke="#8e24aa" stroke-width="1.5" d="M969.66,-378.52C969.66,-378.52 848.66,-378.52 848.66,-378.52 842.66,-378.52 836.66,-372.52 836.66,-366.52 836.66,-366.52 836.66,-343.52 836.66,-343.52 836.66,-337.52 842.66,-331.52 848.66,-331.52 848.66,-331.52 969.66,-331.52 969.66,-331.52 975.66,-331.52 981.66,-337.52 981.66,-343.52 981.66,-343.52 981.66,-366.52 981.66,-366.52 981.66,-372.52 975.66,-378.52 969.66,-378.52"/>
<text text-anchor="middle" x="909.16" y="-364.92" font-family="Helvetica,Arial,sans-serif" font-size="12.00">🗂️ Notes Index</text>
<text text-anchor="middle" x="909.16" y="-351.92" font-family="Helvetica,Arial,sans-serif" font-size="12.00">(notes_index.py)</text>
<text text-anchor="middle" x="909.16" y="-338.92" font-family="Helvetica,Arial,sans-serif" font-size="12.00">[Tagged Output Chunks]</text>
</g>
<!-- Engine&#45;&gt;NotesMem -->
<g id="edge9" class="edge">
<title>Engine&#45;&gt;NotesMem</title>
<path fill="none" stroke="#8e24aa" stroke-width="1.5" d="M650.87,-344.27C650.87,-344.27 826.43,-344.27 826.43,-344.27"/>
<polygon fill="#8e24aa" stroke="#8e24aa" stroke-width="1.5" points="826.43,-347.77 836.43,-344.27 826.43,-340.77 826.43,-347.77"/>
<text text-anchor="middle" x="735.66" y="-343.02" font-family="Helvetica,Arial,sans-serif" font-size="10.00" fill="#8e24aa"> Store/Search</text>
</g>
<!-- SessionMem -->
<g id="node11" class="node">
<title>SessionMem</title>
<path fill="#ffffff" stroke="#8e24aa" stroke-width="1.5" d="M959.66,-295.52C959.66,-295.52 858.66,-295.52 858.66,-295.52 852.66,-295.52 846.66,-289.52 846.66,-283.52 846.66,-283.52 846.66,-260.52 846.66,-260.52 846.66,-254.52 852.66,-248.52 858.66,-248.52 858.66,-248.52 959.66,-248.52 959.66,-248.52 965.66,-248.52 971.66,-254.52 971.66,-260.52 971.66,-260.52 971.66,-283.52 971.66,-283.52 971.66,-289.52 965.66,-295.52 959.66,-295.52"/>
<text text-anchor="middle" x="909.16" y="-281.92" font-family="Helvetica,Arial,sans-serif" font-size="12.00">💬 Session Context</text>
<text text-anchor="middle" x="909.16" y="-268.92" font-family="Helvetica,Arial,sans-serif" font-size="12.00">(memory.py)</text>
<text text-anchor="middle" x="909.16" y="-255.92" font-family="Helvetica,Arial,sans-serif" font-size="12.00">[Chat Logs]</text>
</g>
<!-- Engine&#45;&gt;SessionMem -->
<g id="edge10" class="edge">
<title>Engine&#45;&gt;SessionMem</title>
<path fill="none" stroke="#8e24aa" stroke-width="1.5" d="M650.87,-283.27C650.87,-283.27 836.42,-283.27 836.42,-283.27"/>
<polygon fill="#8e24aa" stroke="#8e24aa" stroke-width="1.5" points="836.42,-286.77 846.42,-283.27 836.42,-279.77 836.42,-286.77"/>
<text text-anchor="middle" x="735.66" y="-283.02" font-family="Helvetica,Arial,sans-serif" font-size="10.00" fill="#8e24aa"> Save/Load</text>
</g>
<!-- Executor -->
<g id="node12" class="node">
<title>Executor</title>
<polygon fill="#ffffff" stroke="#7cb342" stroke-width="1.5" points="967.16,-201.02 851.16,-201.02 851.16,-197.02 847.16,-197.02 847.16,-193.02 851.16,-193.02 851.16,-151.02 847.16,-151.02 847.16,-147.02 851.16,-147.02 851.16,-143.02 967.16,-143.02 967.16,-201.02"/>
<polyline fill="none" stroke="#7cb342" stroke-width="1.5" points="851.16,-197.02 855.16,-197.02 855.16,-193.02 851.16,-193.02 "/>
<polyline fill="none" stroke="#7cb342" stroke-width="1.5" points="851.16,-151.02 855.16,-151.02 855.16,-147.02 851.16,-147.02 "/>
<text text-anchor="middle" x="909.16" y="-175.42" font-family="Helvetica,Arial,sans-serif" font-size="12.00">🏃 Executor Tools</text>
<text text-anchor="middle" x="909.16" y="-162.42" font-family="Helvetica,Arial,sans-serif" font-size="12.00">(executor.py)</text>
</g>
<!-- Engine&#45;&gt;Executor -->
<g id="edge11" class="edge">
<title>Engine&#45;&gt;Executor</title>
<path fill="none" stroke="#27ae60" stroke-width="2" d="M597.81,-270.65C597.81,-228.89 597.81,-172.02 597.81,-172.02 597.81,-172.02 840.96,-172.02 840.96,-172.02"/>
<polygon fill="#27ae60" stroke="#27ae60" stroke-width="2" points="840.96,-175.52 850.96,-172.02 840.96,-168.52 840.96,-175.52"/>
<text text-anchor="middle" x="735.66" y="-208.02" font-family="Helvetica,Arial,sans-serif" font-size="10.00" fill="#27ae60"> Calls Command/Files</text>
</g>
<!-- WebReader -->
<g id="node13" class="node">
<title>WebReader</title>
<path fill="#e8f5e9" stroke="#4caf50" stroke-width="1.5" d="M956.16,-95.02C956.16,-95.02 862.16,-95.02 862.16,-95.02 856.16,-95.02 850.16,-89.02 850.16,-83.02 850.16,-83.02 850.16,-71.02 850.16,-71.02 850.16,-65.02 856.16,-59.02 862.16,-59.02 862.16,-59.02 956.16,-59.02 956.16,-59.02 962.16,-59.02 968.16,-65.02 968.16,-71.02 968.16,-71.02 968.16,-83.02 968.16,-83.02 968.16,-89.02 962.16,-95.02 956.16,-95.02"/>
<text text-anchor="middle" x="909.16" y="-80.42" font-family="Helvetica,Arial,sans-serif" font-size="12.00">🌐 Web Parser</text>
<text text-anchor="middle" x="909.16" y="-67.42" font-family="Helvetica,Arial,sans-serif" font-size="12.00">(HTML/Comments)</text>
</g>
<!-- Engine&#45;&gt;WebReader -->
<g id="edge12" class="edge">
<title>Engine&#45;&gt;WebReader</title>
<path fill="none" stroke="#2c3e50" stroke-width="1.5" d="M544.81,-270.83C544.81,-202.47 544.81,-77.02 544.81,-77.02 544.81,-77.02 839.81,-77.02 839.81,-77.02"/>
<polygon fill="#2c3e50" stroke="#2c3e50" stroke-width="1.5" points="839.81,-80.52 849.81,-77.02 839.81,-73.52 839.81,-80.52"/>
<text text-anchor="middle" x="735.66" y="-111.02" font-family="Helvetica,Arial,sans-serif" font-size="10.00"> Reads Webpages</text>
</g>
<!-- WSL -->
<g id="node14" class="node">
<title>WSL</title>
<path fill="#e8f5e9" stroke="#4caf50" stroke-width="1.5" d="M1321.66,-89.05C1321.66,-91.38 1284.23,-93.27 1238.16,-93.27 1192.08,-93.27 1154.66,-91.38 1154.66,-89.05 1154.66,-89.05 1154.66,-51 1154.66,-51 1154.66,-48.67 1192.08,-46.77 1238.16,-46.77 1284.23,-46.77 1321.66,-48.67 1321.66,-51 1321.66,-51 1321.66,-89.05 1321.66,-89.05"/>
<path fill="none" stroke="#4caf50" stroke-width="1.5" d="M1321.66,-89.05C1321.66,-86.71 1284.23,-84.82 1238.16,-84.82 1192.08,-84.82 1154.66,-86.71 1154.66,-89.05"/>
<text text-anchor="middle" x="1238.16" y="-73.42" font-family="Helvetica,Arial,sans-serif" font-size="12.00">🐧 WSL Ubuntu Subsystem</text>
<text text-anchor="middle" x="1238.16" y="-60.42" font-family="Helvetica,Arial,sans-serif" font-size="12.00">[root shell]</text>
</g>
<!-- Executor&#45;&gt;WSL -->
<g id="edge13" class="edge">
<title>Executor&#45;&gt;WSL</title>
<path fill="none" stroke="#2ecc71" stroke-width="2" d="M967.39,-154.02C1043.12,-154.02 1165.81,-154.02 1165.81,-154.02 1165.81,-154.02 1165.81,-102.09 1165.81,-102.09"/>
<polygon fill="#2ecc71" stroke="#2ecc71" stroke-width="2" points="1169.31,-102.09 1165.81,-92.09 1162.31,-102.09 1169.31,-102.09"/>
<text text-anchor="middle" x="1076.16" y="-104.02" font-family="Helvetica,Arial,sans-serif" font-size="10.00" fill="#2ecc71"> wsl &#45;u root bash &#45;c</text>
</g>
<!-- Workspace -->
<g id="node15" class="node">
<title>Workspace</title>
<polygon fill="#e8f5e9" stroke="#4caf50" stroke-width="1.5" points="1300.66,-201.02 1297.66,-205.02 1276.66,-205.02 1273.66,-201.02 1175.66,-201.02 1175.66,-165.02 1300.66,-165.02 1300.66,-201.02"/>
<text text-anchor="middle" x="1238.16" y="-186.42" font-family="Helvetica,Arial,sans-serif" font-size="12.00">📂 Workspace Area</text>
<text text-anchor="middle" x="1238.16" y="-173.42" font-family="Helvetica,Arial,sans-serif" font-size="12.00">[scans/, scripts/]</text>
</g>
<!-- Executor&#45;&gt;Workspace -->
<g id="edge14" class="edge">
<title>Executor&#45;&gt;Workspace</title>
<path fill="none" stroke="#2c3e50" stroke-width="1.5" d="M967.22,-183.02C967.22,-183.02 1165.64,-183.02 1165.64,-183.02"/>
<polygon fill="#2c3e50" stroke="#2c3e50" stroke-width="1.5" points="1165.64,-186.52 1175.64,-183.02 1165.64,-179.52 1165.64,-186.52"/>
<text text-anchor="middle" x="1076.16" y="-180.02" font-family="Helvetica,Arial,sans-serif" font-size="10.00"> write_file/read_file</text>
</g>
<!-- WebReader&#45;&gt;Target -->
<g id="edge17" class="edge">
<title>WebReader&#45;&gt;Target</title>
<path fill="none" stroke="#2c3e50" stroke-width="1.5" d="M909.81,-58.84C909.81,-43.26 909.81,-23.32 909.81,-23.32 909.81,-23.32 1480.32,-23.32 1480.32,-23.32"/>
<polygon fill="#2c3e50" stroke="#2c3e50" stroke-width="1.5" points="1480.32,-26.82 1490.32,-23.32 1480.32,-19.82 1480.32,-26.82"/>
<text text-anchor="middle" x="1238.16" y="-3.02" font-family="Helvetica,Arial,sans-serif" font-size="10.00"> HTTP GET</text>
</g>
<!-- WSL&#45;&gt;Target -->
<g id="edge16" class="edge">
<title>WSL&#45;&gt;Target</title>
<path fill="none" stroke="#c0392b" stroke-width="2" d="M1321.85,-53.35C1321.85,-53.35 1513.73,-53.35 1513.73,-53.35"/>
<polygon fill="#c0392b" stroke="#c0392b" stroke-width="2" points="1513.73,-56.85 1523.73,-53.35 1513.73,-49.85 1513.73,-56.85"/>
<text text-anchor="middle" x="1406.16" y="-79.02" font-family="Helvetica,Arial,sans-serif" font-size="10.00" fill="#c0392b"> Network Traffic</text>
<text text-anchor="middle" x="1406.16" y="-68.02" font-family="Helvetica,Arial,sans-serif" font-size="10.00" fill="#c0392b">(nmap, gobuster, etc.)</text>
</g>
<!-- WSL&#45;&gt;Workspace -->
<g id="edge15" class="edge">
<title>WSL&#45;&gt;Workspace</title>
<path fill="none" stroke="#2c3e50" stroke-width="1.5" stroke-dasharray="5,2" d="M1238.81,-93.44C1238.81,-93.44 1238.81,-154.84 1238.81,-154.84"/>
<polygon fill="#2c3e50" stroke="#2c3e50" stroke-width="1.5" points="1235.31,-154.84 1238.81,-164.84 1242.31,-154.84 1235.31,-154.84"/>
</g>
</g>
</svg>
